<?xml version="1.0" standalone="no"?>
<!DOCTYPE svg PUBLIC "-//W3C//DTD SVG 20010904//EN"
 "http://www.w3.org/TR/2001/REC-SVG-20010904/DTD/svg10.dtd">
<svg version="1.0" xmlns="http://www.w3.org/2000/svg"
 width="512.000000pt" height="512.000000pt" viewBox="0 0 512.000000 512.000000"
 preserveAspectRatio="xMidYMid meet">
<metadata>
Created by potrace 1.16, written by Peter Selinger 2001-2019
</metadata>
<g transform="translate(0.000000,512.000000) scale(0.100000,-0.100000)"
fill="#000000" stroke="none">
<path d="M290 5111 c-109 -34 -205 -117 -253 -219 l-32 -67 0 -2265 0 -2265
32 -67 c40 -85 106 -151 191 -191 l67 -32 2265 0 2265 0 67 32 c85 40 151 106
191 191 l32 67 0 2270 0 2270 -33 63 c-44 84 -108 146 -190 185 l-67 32 -2255
2 c-1240 1 -2266 -2 -2280 -6z m1790 -1746 l0 -535 485 0 485 0 0 535 0 535
315 0 315 0 0 -1340 0 -1340 -315 0 -315 0 0 560 0 560 -485 0 -485 0 0 -560
0 -560 -320 0 -320 0 0 1340 0 1340 320 0 320 0 0 -535z"/>
</g>
</svg>
